<?xml version="1.0" encoding="UTF-8"?>
<svg width="32px" height="57px" viewBox="0 0 32 57" version="1.1" xmlns="http://www.w3.org/2000/svg" xmlns:xlink="http://www.w3.org/1999/xlink">
    <!-- Generator: Sketch 58 (84663) - https://sketch.com -->
    <title>Group</title>
    <desc>Created with Sketch.</desc>
    <g id="Page-1" stroke="none" stroke-width="1" fill="none" fill-rule="evenodd">
        <g id="home" transform="translate(-42.000000, -27.000000)">
            <g id="Group" transform="translate(42.000000, 27.000000)">
                <path d="M0.158748589,45.7127802 L11.0938697,28.477733 L11.0938697,28.477733 C13.1910786,25.2917169 20.3300064,15.5398889 20.3300064,12.1107433 C20.3300064,9.46000688 18.2076754,7.31954626 15.6028036,7.31954626 C12.9750935,7.31954626 10.8765795,9.46000688 10.8765795,12.1107433 C10.8765795,13.3326417 11.3353032,14.4525507 12.0919036,15.2974174 L13.5905156,17.4414058 C13.821151,17.7713643 13.8314403,18.2074494 13.6166233,18.5479182 L10.5572667,23.3967688 C10.3459564,23.7316108 9.90322179,23.8317942 9.56836013,23.620515 C9.48056788,23.565123 9.40585187,23.4913263 9.34937712,23.4042266 C9.34937712,23.4042266 9.34937712,23.4042266 9.34937712,23.4042266 C6.86675202,19.5753309 4.17255829,15.1899073 4.17255829,11.5514468 C4.17255829,5.18040163 9.28474969,7.10542736e-15 15.6028036,7.10542736e-15 C21.9459796,7.10542736e-15 27.0588235,5.18040163 27.0588235,11.5514468 C27.0588235,17.2181074 23.1759855,21.6441167 20.0644296,26.556714 L20.0644296,26.5320392 L15.3861659,34.2171022 L15.4106356,34.24079 L1.96209569,56.4154157 C1.67569959,56.8876399 1.06071631,57.0382834 0.588492085,56.7518873 C0.292876045,56.5726011 0.110839877,56.2533348 0.107116101,55.9076203 L0.0031915309,46.2592877 C0.00110860431,46.0659093 0.0551426183,45.8760755 0.158748589,45.7127802 Z" id="Fill-4" fill="#1D1D1B"></path>
                <path d="M31.4227764,45.7962672 L22.3653916,31.8949488 C22.0638992,31.4322169 21.4443731,31.3015064 20.9816412,31.6029987 C20.8609478,31.6816363 20.7586686,31.7854213 20.6818032,31.9072509 L17.8095393,36.4597095 C17.6049796,36.7839309 17.6037773,37.1965598 17.8064441,37.5219679 L22.8805382,45.6690908 L22.8805382,45.6690908 L11.8701197,45.6690908 C11.5249321,45.6690908 11.2041512,45.8471173 11.0215295,46.14004 L8.60034057,50.0235937 C8.30815389,50.4922571 8.45121654,51.109048 8.91987995,51.4012346 C9.07860008,51.5001882 9.26189094,51.5526445 9.44893073,51.5526445 L26.544622,51.5526445 L26.544622,51.5526445 L29.6289523,56.5046641 C29.9209351,56.9734545 30.5376637,57.1167855 31.0064541,56.8248027 C31.296232,56.6443166 31.4739137,56.3284723 31.4777106,55.9871044 L31.5848643,46.3532893 C31.5870623,46.1556781 31.5306591,45.9618461 31.4227764,45.7962672 Z" id="Fill-6" fill="#6A01E9"></path>
            </g>
        </g>
    </g>
</svg>