<?xml version="1.0" encoding="UTF-8"?>
<svg width="9px" height="9px" viewBox="0 0 9 9" version="1.1" xmlns="http://www.w3.org/2000/svg" xmlns:xlink="http://www.w3.org/1999/xlink">
    <!-- Generator: Sketch 58 (84663) - https://sketch.com -->
    <title>ic-behance</title>
    <desc>Created with Sketch.</desc>
    <g id="ic-behance" stroke="none" stroke-width="1" fill="none" fill-rule="evenodd">
        <path d="M8.24991091,2.7 L5.62493926,2.7 L5.62493926,2 L8.24991091,2 L8.24991091,2.7 Z M8.89715392,6.2 C8.73140571,6.65395 8.13628714,7.25 6.98429958,7.25 C5.83156202,7.25 4.89782211,6.64485 4.89782211,5.26375 C4.89782211,3.89525 5.76968769,3.19175 6.94754997,3.19175 C8.10328749,3.19175 8.80902987,3.81545 8.96315321,4.74085 C8.99240289,4.91795 9.00402777,5.15665 8.99877782,5.48985 L5.98868533,5.48985 C6.0374348,6.6137 7.29479622,6.64905 7.70916675,6.2 L8.89715392,6.2 Z M6.01493504,4.8 L7.87678994,4.8 C7.83741536,4.25855 7.45079454,4.02335 6.94792497,4.02335 C6.39818091,4.02335 6.09405919,4.29215 6.01493504,4.8 Z M2.42472382,7.2458 L0,7.2458 L0,2.00735 L2.60734684,2.00735 C4.66082467,2.0357 4.69982425,3.91275 3.62733583,4.42445 C4.92519681,4.86545 4.96869634,7.2458 2.42472382,7.2458 Z M1.12498785,4.1 L2.46897334,4.1 C3.40946318,4.1 3.55871157,3.05 2.3519746,3.05 L1.12498785,3.05 L1.12498785,4.1 Z M2.39659912,5.15 L1.12498785,5.15 L1.12498785,6.2056 L2.37784932,6.2056 C3.52346195,6.2056 3.45333771,5.15 2.39659912,5.15 L2.39659912,5.15 Z" id="Shape" fill="#6A01E9" fill-rule="nonzero"></path>
    </g>
</svg>