<?xml version="1.0" encoding="UTF-8"?>
<svg width="9px" height="9px" viewBox="0 0 9 9" version="1.1" xmlns="http://www.w3.org/2000/svg" xmlns:xlink="http://www.w3.org/1999/xlink">
    <!-- Generator: Sketch 58 (84663) - https://sketch.com -->
    <title>ic-ig</title>
    <desc>Created with Sketch.</desc>
    <g id="ic-ig" stroke="none" stroke-width="1" fill="none" fill-rule="evenodd">
        <path d="M4.49943306,-0.00115173835 L4.71642276,-0.00108820746 C5.74214164,-0.000438810636 5.90497368,0.00539804076 6.35500581,0.0259316988 C6.83403963,0.0477806721 7.16120255,0.12386798 7.44747234,0.235131599 C7.74342499,0.350129016 7.99441127,0.504018678 8.24462936,0.7542189 C8.49482958,1.00443699 8.64871925,1.25542327 8.76373453,1.55137592 C8.87498028,1.83764571 8.95106759,2.16480863 8.97291656,2.64384246 C8.9907124,3.0338703 8.9974693,3.20817896 8.99937751,3.91544203 L8.99937751,5.08341582 C8.9974693,5.7906693 8.9907124,5.96497796 8.97291656,6.35500581 C8.95106759,6.83403963 8.87498028,7.16120255 8.76373453,7.44747234 C8.64871925,7.74342499 8.49482958,7.99441127 8.24462936,8.24462936 C7.99441127,8.49482958 7.74342499,8.64871925 7.44747234,8.76373453 C7.16120255,8.87498028 6.83403963,8.95106759 6.35500581,8.97291656 C5.96497796,8.9907124 5.7906693,8.9974693 5.08341582,8.99937751 L3.91544203,8.99937751 C3.20817896,8.9974693 3.0338703,8.9907124 2.64384246,8.97291656 C2.16480863,8.95106759 1.83764571,8.87498028 1.55137592,8.76373453 C1.25542327,8.64871925 1.00443699,8.49482958 0.7542189,8.24462936 C0.504018678,7.99441127 0.350129016,7.74342499 0.235131599,7.44747234 C0.12386798,7.16120255 0.0477806721,6.83403963 0.0259316988,6.35500581 C0.00539804076,5.90497368 -0.000438810636,5.74214164 -0.00108820746,4.71642276 L-0.00108820746,4.28244022 C-0.000438810636,3.25670662 0.00539804076,3.09387458 0.0259316988,2.64384246 C0.0477806721,2.16480863 0.12386798,1.83764571 0.235131599,1.55137592 C0.350129016,1.25542327 0.504018678,1.00443699 0.7542189,0.7542189 C1.00443699,0.504018678 1.25542327,0.350129016 1.55137592,0.235131599 C1.83764571,0.12386798 2.16480863,0.0477806721 2.64384246,0.0259316988 C3.09387458,0.00539804076 3.25670662,-0.000438810636 4.28244022,-0.00108820746 L4.71642276,-0.00108820746 Z M4.49943306,0.809761384 L4.28618684,0.809818233 C3.27863033,0.810401944 3.12571236,0.815705984 2.68080527,0.836005163 C2.24200357,0.856014035 2.00370148,0.929332258 1.84511331,0.990966729 C1.63503802,1.07261007 1.4851144,1.17013546 1.32763386,1.32763386 C1.17013546,1.4851144 1.07261007,1.63503802 0.990966729,1.84511331 C0.929332258,2.00370148 0.856014035,2.24200357 0.836005163,2.68080527 C0.815705984,3.12571236 0.810401944,3.27863033 0.809818233,4.28618684 L0.809818233,4.71267614 C0.810401944,5.72021793 0.815705984,5.8731359 0.836005163,6.31804299 C0.856014035,6.75684469 0.929332258,6.99514678 0.990966729,7.15373496 C1.07261007,7.36381024 1.17015332,7.51373386 1.32763386,7.6712144 C1.4851144,7.82871281 1.63503802,7.92623819 1.84511331,8.00788153 C2.00370148,8.069516 2.24200357,8.14283423 2.68080527,8.1628431 C3.12566212,8.18314228 3.27854554,8.18844632 4.28617153,8.18903003 L4.71269165,8.18903003 C5.72030481,8.18844632 5.87320289,8.18314228 6.31804299,8.1628431 C6.75684469,8.14283423 6.99514678,8.069516 7.15373496,8.00788153 C7.36381024,7.92623819 7.51373386,7.82871281 7.6712144,7.6712144 C7.82871281,7.51373386 7.92623819,7.36381024 8.00788153,7.15373496 C8.069516,6.99514678 8.14283423,6.75684469 8.1628431,6.31804299 C8.18314228,5.8731359 8.18844632,5.72021793 8.18903003,4.71267614 L8.18903003,4.28618684 C8.18844632,3.27863033 8.18314228,3.12571236 8.1628431,2.68080527 C8.14283423,2.24200357 8.069516,2.00370148 8.00788153,1.84511331 C7.92623819,1.63503802 7.82871281,1.4851144 7.6712144,1.32763386 C7.51373386,1.17013546 7.36381024,1.07261007 7.15373496,0.990966729 C6.99514678,0.929332258 6.75684469,0.856014035 6.31804299,0.836005163 C5.90279637,0.817059263 5.74190472,0.811175795 4.90312925,0.810000957 L4.71267614,0.809818233 Z M4.49943306,2.18831905 C5.77582043,2.18831905 6.81052921,3.22302783 6.81052921,4.49943306 C6.81052921,5.77582043 5.77582043,6.81052921 4.49943306,6.81052921 C3.22302783,6.81052921 2.18831905,5.77582043 2.18831905,4.49943306 C2.18831905,3.22302783 3.22302783,2.18831905 4.49943306,2.18831905 Z M4.49943306,2.99923217 C3.67088712,2.99923217 2.99923217,3.67088712 2.99923217,4.49943306 C2.99923217,5.32796114 3.67088712,5.99961609 4.49943306,5.99961609 C5.32796114,5.99961609 5.99961609,5.32796114 5.99961609,4.49943306 C5.99961609,3.67088712 5.32796114,2.99923217 4.49943306,2.99923217 Z M6.90183755,1.55693196 C7.20011266,1.55693196 7.4419163,1.7987356 7.4419163,2.09701071 C7.4419163,2.39528582 7.20011266,2.6370716 6.90183755,2.6370716 C6.60358031,2.6370716 6.36177667,2.39528582 6.36177667,2.09701071 C6.36177667,1.7987356 6.60358031,1.55693196 6.90183755,1.55693196 Z" id="Combined-Shape" fill="#0A0B09"></path>
    </g>
</svg>