<?xml version="1.0" encoding="UTF-8"?>
<svg width="9px" height="9px" viewBox="0 0 9 9" version="1.1" xmlns="http://www.w3.org/2000/svg" xmlns:xlink="http://www.w3.org/1999/xlink">
    <!-- Generator: Sketch 58 (84663) - https://sketch.com -->
    <title>ic-linkedin</title>
    <desc>Created with Sketch.</desc>
    <g id="ic-linkedin" stroke="none" stroke-width="1" fill="none" fill-rule="evenodd">
        <path d="M1.91803279,9 L0.147540984,9 L0.147540984,2.73259053 L1.91803279,2.73259053 L1.91803279,9 Z M1.03278689,2.01012915 C0.462688525,2.01012915 0,1.56001519 0,1.00506457 C0,0.450113953 0.462688525,0 1.03278689,0 C1.60288525,0 2.06557377,0.450113953 2.06557377,1.00506457 C2.06557377,1.56001519 1.60347541,2.01012915 1.03278689,2.01012915 Z M9,9 L7.2295082,9 L7.2295082,5.80703976 C7.2295082,3.88807293 4.86885246,4.03336288 4.86885246,5.80703976 L4.86885246,9 L3.09836066,9 L3.09836066,2.73259053 L4.86885246,2.73259053 L4.86885246,3.73822487 C5.69272131,2.26481388 9,2.15598886 9,5.14896176 L9,9 Z" id="Shape" fill="#6A01E9" fill-rule="nonzero"></path>
    </g>
</svg>